# xmcd CD database file generated by Grip 3.2.0
# 
# Track frame offsets:
#       150
#       12738
#       28320
#       41219
#       55921
#       68830
#       81524
#       92020
#       102924
#       115608
#       127671
#       141588
#       154426
#       166578
#       179521
#       192105
#       204799
#       219701
#       232269
#       244768
#       254908
#       267363
#       278182
#       292536
#       305393
#       317679
#       331084
#       346024
# 
# Disc length: 4787 seconds
# 
# Revision: 2
# Processed by: cddbd v1.5.2PL0 Copyright (c) Steve Scherf et al.
# Submitted via: Grip 3.2.0
# 
DISCID=a012b11c
DTITLE=Elmore James - The early years (Best of) - 1951-1956
DYEAR=1956
DGENRE=Blues
TTITLE0=Dust my broom
TTITLE1=I held my baby last night
TTITLE2=Baby what's wrong
TTITLE3=I believe
TTITLE4=Sinful woman
TTITLE5=Early in the morning
TTITLE6=Hawaiian boogie
TTITLE7=Can't stop lovin'
TTITLE8=Make a little love
TTITLE9=Strange kinda feeling
TTITLE10=Please find my baby
TTITLE11=Hand in hand
TTITLE12=Make my dreams come true
TTITLE13=Sho' nuff I do
TTITLE14=Dark and dreary
TTITLE15=Rock my baby right
TTITLE16=Sunny land
TTITLE17=Standing at the crossroads
TTITLE18=Late hours at midnight
TTITLE19=The way you treat me (aka Mean and evil)
TTITLE20=Happy home
TTITLE21=No love in my heart (for you)
TTITLE22=Dust my blues
TTITLE23=I was a fool
TTITLE24=Blues before sunrise
TTITLE25=Goodbye baby
TTITLE26=Wild about you
TTITLE27=Long tall woman
EXTD=The Legendary Modern Recordings\n1995 ACE Records CDCHD 583\n
EXTT0=
EXTT1=
EXTT2=
EXTT3=
EXTT4=
EXTT5=
EXTT6=
EXTT7=
EXTT8=
EXTT9=
EXTT10=
EXTT11=
EXTT12=
EXTT13=
EXTT14=
EXTT15=
EXTT16=
EXTT17=
EXTT18=
EXTT19=
EXTT20=
EXTT21=
EXTT22=
EXTT23=
EXTT24=
EXTT25=
EXTT26=
EXTT27=
PLAYORDER=
